<svg width="109" height="16" viewBox="0 0 109 16" fill="none" xmlns="http://www.w3.org/2000/svg">
<g clip-path="url(#clip0)">
<path d="M16.539 6.09695C16.5218 6.04424 16.4903 5.99738 16.4478 5.96168C16.4054 5.92598 16.3539 5.90287 16.299 5.89495L10.939 5.11595L8.542 0.25995C8.51747 0.210652 8.47967 0.169174 8.43285 0.14018C8.38604 0.111186 8.33207 0.0958252 8.277 0.0958252C8.22193 0.0958252 8.16796 0.111186 8.12115 0.14018C8.07433 0.169174 8.03653 0.210652 8.012 0.25995L5.613 5.11695L0.253 5.89595C0.198449 5.90408 0.147239 5.92724 0.105108 5.96283C0.0629761 5.99842 0.0315873 6.04504 0.0144582 6.09747C-0.00267103 6.14989 -0.00486393 6.20605 0.00812514 6.25965C0.0211142 6.31326 0.0487721 6.36218 0.0880001 6.40095L3.968 10.181L3.051 15.521C3.042 15.5754 3.04832 15.6312 3.06927 15.6822C3.09022 15.7332 3.12496 15.7774 3.1696 15.8098C3.21424 15.8422 3.26701 15.8615 3.32201 15.8656C3.37701 15.8697 3.43206 15.8584 3.481 15.833L8.276 13.313L13.07 15.833C13.119 15.8589 13.1743 15.8705 13.2295 15.8666C13.2848 15.8627 13.3379 15.8433 13.3827 15.8107C13.4275 15.778 13.4623 15.7335 13.483 15.6821C13.5037 15.6307 13.5096 15.5745 13.5 15.52L12.584 10.182L16.464 6.39995C16.544 6.31995 16.574 6.20295 16.539 6.09595V6.09695Z" fill="#EF9546"/>
</g>
<g clip-path="url(#clip1)">
<path d="M108.539 6.09695C108.522 6.04424 108.49 5.99738 108.448 5.96168C108.405 5.92598 108.354 5.90287 108.299 5.89495L102.939 5.11595L100.542 0.25995C100.517 0.210652 100.48 0.169174 100.433 0.14018C100.386 0.111186 100.332 0.0958252 100.277 0.0958252C100.222 0.0958252 100.168 0.111186 100.121 0.14018C100.074 0.169174 100.037 0.210652 100.012 0.25995L97.613 5.11695L92.253 5.89595C92.1984 5.90408 92.1472 5.92724 92.1051 5.96283C92.063 5.99842 92.0316 6.04504 92.0145 6.09747C91.9973 6.14989 91.9951 6.20605 92.0081 6.25965C92.0211 6.31326 92.0488 6.36218 92.088 6.40095L95.968 10.181L95.051 15.521C95.042 15.5754 95.0483 15.6312 95.0693 15.6822C95.0902 15.7332 95.125 15.7774 95.1696 15.8098C95.2142 15.8422 95.267 15.8615 95.322 15.8656C95.377 15.8697 95.4321 15.8584 95.481 15.833L100.276 13.313L105.07 15.833C105.119 15.8589 105.174 15.8705 105.23 15.8666C105.285 15.8627 105.338 15.8433 105.383 15.8107C105.428 15.778 105.462 15.7335 105.483 15.6821C105.504 15.6307 105.51 15.5745 105.5 15.52L104.584 10.182L108.464 6.39995C108.544 6.31995 108.574 6.20295 108.539 6.09595V6.09695Z" fill="#EF9546"/>
</g>
<g clip-path="url(#clip2)">
<path d="M85.539 6.09695C85.5218 6.04424 85.4903 5.99738 85.4478 5.96168C85.4054 5.92598 85.3539 5.90287 85.299 5.89495L79.939 5.11595L77.542 0.25995C77.5175 0.210652 77.4797 0.169174 77.4329 0.14018C77.386 0.111186 77.3321 0.0958252 77.277 0.0958252C77.2219 0.0958252 77.168 0.111186 77.1211 0.14018C77.0743 0.169174 77.0365 0.210652 77.012 0.25995L74.613 5.11695L69.253 5.89595C69.1984 5.90408 69.1472 5.92724 69.1051 5.96283C69.063 5.99842 69.0316 6.04504 69.0145 6.09747C68.9973 6.14989 68.9951 6.20605 69.0081 6.25965C69.0211 6.31326 69.0488 6.36218 69.088 6.40095L72.968 10.181L72.051 15.521C72.042 15.5754 72.0483 15.6312 72.0693 15.6822C72.0902 15.7332 72.125 15.7774 72.1696 15.8098C72.2142 15.8422 72.267 15.8615 72.322 15.8656C72.377 15.8697 72.4321 15.8584 72.481 15.833L77.276 13.313L82.07 15.833C82.119 15.8589 82.1743 15.8705 82.2295 15.8666C82.2848 15.8627 82.3379 15.8433 82.3827 15.8107C82.4275 15.778 82.4623 15.7335 82.483 15.6821C82.5037 15.6307 82.5096 15.5745 82.5 15.52L81.584 10.182L85.464 6.39995C85.544 6.31995 85.574 6.20295 85.539 6.09595V6.09695Z" fill="#EF9546"/>
</g>
<g clip-path="url(#clip3)">
<path d="M62.539 6.09695C62.5218 6.04424 62.4903 5.99738 62.4478 5.96168C62.4054 5.92598 62.3539 5.90287 62.299 5.89495L56.939 5.11595L54.542 0.25995C54.5175 0.210652 54.4797 0.169174 54.4329 0.14018C54.386 0.111186 54.3321 0.0958252 54.277 0.0958252C54.2219 0.0958252 54.168 0.111186 54.1211 0.14018C54.0743 0.169174 54.0365 0.210652 54.012 0.25995L51.613 5.11695L46.253 5.89595C46.1984 5.90408 46.1472 5.92724 46.1051 5.96283C46.063 5.99842 46.0316 6.04504 46.0145 6.09747C45.9973 6.14989 45.9951 6.20605 46.0081 6.25965C46.0211 6.31326 46.0488 6.36218 46.088 6.40095L49.968 10.181L49.051 15.521C49.042 15.5754 49.0483 15.6312 49.0693 15.6822C49.0902 15.7332 49.125 15.7774 49.1696 15.8098C49.2142 15.8422 49.267 15.8615 49.322 15.8656C49.377 15.8697 49.4321 15.8584 49.481 15.833L54.276 13.313L59.07 15.833C59.119 15.8589 59.1743 15.8705 59.2295 15.8666C59.2848 15.8627 59.3379 15.8433 59.3827 15.8107C59.4275 15.778 59.4623 15.7335 59.483 15.6821C59.5037 15.6307 59.5096 15.5745 59.5 15.52L58.584 10.182L62.464 6.39995C62.544 6.31995 62.574 6.20295 62.539 6.09595V6.09695Z" fill="#EF9546"/>
</g>
<g clip-path="url(#clip4)">
<path d="M39.539 6.09695C39.5218 6.04424 39.4903 5.99738 39.4478 5.96168C39.4054 5.92598 39.3539 5.90287 39.299 5.89495L33.939 5.11595L31.542 0.25995C31.5175 0.210652 31.4797 0.169174 31.4329 0.14018C31.386 0.111186 31.3321 0.0958252 31.277 0.0958252C31.2219 0.0958252 31.168 0.111186 31.1211 0.14018C31.0743 0.169174 31.0365 0.210652 31.012 0.25995L28.613 5.11695L23.253 5.89595C23.1984 5.90408 23.1472 5.92724 23.1051 5.96283C23.063 5.99842 23.0316 6.04504 23.0145 6.09747C22.9973 6.14989 22.9951 6.20605 23.0081 6.25965C23.0211 6.31326 23.0488 6.36218 23.088 6.40095L26.968 10.181L26.051 15.521C26.042 15.5754 26.0483 15.6312 26.0693 15.6822C26.0902 15.7332 26.125 15.7774 26.1696 15.8098C26.2142 15.8422 26.267 15.8615 26.322 15.8656C26.377 15.8697 26.4321 15.8584 26.481 15.833L31.276 13.313L36.07 15.833C36.119 15.8589 36.1743 15.8705 36.2295 15.8666C36.2848 15.8627 36.3379 15.8433 36.3827 15.8107C36.4275 15.778 36.4623 15.7335 36.483 15.6821C36.5037 15.6307 36.5096 15.5745 36.5 15.52L35.584 10.182L39.464 6.39995C39.544 6.31995 39.574 6.20295 39.539 6.09595V6.09695Z" fill="#EF9546"/>
</g>
<defs>
<clipPath id="clip0">
<rect width="17" height="16" fill="white"/>
</clipPath>
<clipPath id="clip1">
<rect width="17" height="16" fill="white" transform="translate(92)"/>
</clipPath>
<clipPath id="clip2">
<rect width="17" height="16" fill="white" transform="translate(69)"/>
</clipPath>
<clipPath id="clip3">
<rect width="17" height="16" fill="white" transform="translate(46)"/>
</clipPath>
<clipPath id="clip4">
<rect width="17" height="16" fill="white" transform="translate(23)"/>
</clipPath>
</defs>
</svg>
